<?xml version="1.0" encoding="UTF-8"?><svg id="_レイヤー_2" xmlns="http://www.w3.org/2000/svg" viewBox="0 0 132.16 36.87"><defs><style>.cls-1,.cls-2{stroke-width:0px;}.cls-2{fill:#fff;}</style></defs><g id="_レイヤー_1-2"><path class="cls-1" d="m2,34.53v-2.63l-2-3.69h1.32l.75,1.62c.22.47.38.82.55,1.25h.02c.16-.4.34-.79.55-1.26l.76-1.62h1.3l-2.1,3.66v2.66h-1.16Zm12.76-3.23c0,2.12-1.28,3.33-3.03,3.33s-2.92-1.36-2.92-3.22,1.23-3.31,3.01-3.31,2.93,1.39,2.93,3.2Zm-4.72.09c0,1.29.65,2.32,1.76,2.32s1.75-1.04,1.75-2.36c0-1.19-.59-2.32-1.74-2.32s-1.76,1.07-1.76,2.37Zm8.91-3.19h1.15v2.91h.03c.15-.24.31-.47.46-.68l1.66-2.23h1.42l-2.18,2.69,2.32,3.63h-1.35l-1.79-2.9-.57.68v2.22h-1.15v-6.32Zm14.27,3.1c0,2.12-1.28,3.33-3.03,3.33s-2.92-1.36-2.92-3.22,1.23-3.31,3.01-3.31,2.93,1.39,2.93,3.2Zm-4.72.09c0,1.29.65,2.32,1.76,2.32s1.75-1.04,1.75-2.36c0-1.19-.59-2.32-1.74-2.32s-1.76,1.07-1.76,2.37Zm10.06-3.19v2.53h2.67v-2.53h1.16v6.32h-1.16v-2.79h-2.67v2.79h-1.16v-6.32h1.16Zm9.61,4.54l-.54,1.79h-1.19l2.03-6.32h1.47l2.06,6.32h-1.24l-.57-1.79h-2.01Zm1.82-.87l-.5-1.56c-.12-.39-.23-.82-.32-1.19h-.02c-.09.37-.19.81-.3,1.19l-.49,1.56h1.63Zm11.41.08c-.04-.82-.08-1.8-.08-2.66h-.03c-.21.78-.47,1.63-.75,2.43l-.93,2.74h-.89l-.84-2.7c-.25-.81-.47-1.67-.64-2.47h-.02c-.03.83-.07,1.84-.11,2.7l-.14,2.54h-1.08l.42-6.32h1.52l.82,2.54c.23.75.43,1.5.58,2.2h.03c.17-.69.39-1.46.63-2.21l.88-2.54h1.5l.36,6.32h-1.13l-.12-2.58Zm6.88.79l-.54,1.79h-1.19l2.03-6.32h1.47l2.06,6.32h-1.24l-.57-1.79h-2.01Zm1.82-.87l-.5-1.56c-.12-.39-.23-.82-.32-1.19h-.02c-.09.37-.19.81-.3,1.19l-.49,1.56h1.63Zm12.19-4.38v9.38h-.83v-9.38h.83Zm11.07.71h1.16v4.1c0,1.74-.85,2.33-2.1,2.33-.32,0-.72-.06-.97-.15l.14-.93c.18.06.44.11.71.11.66,0,1.06-.3,1.06-1.4v-4.06Zm6.88,4.54l-.54,1.79h-1.19l2.03-6.32h1.47l2.06,6.32h-1.24l-.57-1.79h-2.01Zm1.82-.87l-.5-1.56c-.12-.39-.23-.82-.32-1.19h-.02c-.09.37-.19.81-.3,1.19l-.49,1.56h1.63Zm6.07-3.58c.42-.07.99-.13,1.77-.13.84,0,1.46.18,1.86.52.38.31.62.81.62,1.4s-.19,1.09-.54,1.43c-.46.46-1.18.68-2,.68-.22,0-.41-.01-.57-.04v2.39h-1.15v-6.24Zm1.15,2.95c.15.04.33.05.57.05.86,0,1.39-.43,1.39-1.17,0-.7-.49-1.07-1.29-1.07-.32,0-.55.03-.67.06v2.14Zm8.56,1.51l-.54,1.79h-1.19l2.03-6.32h1.47l2.06,6.32h-1.24l-.57-1.79h-2.01Zm1.82-.87l-.5-1.56c-.12-.39-.23-.82-.32-1.19h-.02c-.09.37-.19.81-.3,1.19l-.49,1.56h1.63Zm6.07,2.66v-6.32h1.32l1.63,2.71c.42.7.78,1.43,1.08,2.12h.02c-.08-.85-.1-1.66-.1-2.63v-2.21h1.07v6.32h-1.2l-1.65-2.78c-.4-.69-.82-1.46-1.13-2.18h-.03c.05.83.06,1.66.06,2.7v2.26h-1.07Z"/><path class="cls-2" d="m20.86,13.18c-.77.7-1.76,1.08-2.79,1.08s-2.09-.41-2.86-1.15c-.83-.79-1.29-1.86-1.29-3.01,0-1.07.41-2.1,1.16-2.87.79-.83,1.86-1.28,3-1.28s2.28.49,3.07,1.36l.62.68,4.26-4.17-.6-.63c-1.93-2.05-4.54-3.18-7.35-3.18s-5.27,1.06-7.18,3c-1.88,1.9-2.92,4.43-2.92,7.1s1.07,5.29,3.02,7.2c1.9,1.87,4.42,2.9,7.09,2.9s5.03-.97,6.91-2.73l.66-.62-4.14-4.25-.63.58Z"/><path class="cls-1" d="m.87.61h3.05c.44,0,.69.25.69.69v18.01c0,.44-.25.69-.69.69H.87c-.44,0-.69-.25-.69-.69V1.3C.18.86.43.61.87.61"/><path class="cls-1" d="m44.41,19.15c.36.44.17.86-.42.86h-3.55c-.36,0-.64-.11-.86-.42l-4.72-5.96h-1.71v5.68c0,.44-.25.69-.69.69h-3.05c-.44,0-.69-.25-.69-.69V1.3c0-.44.25-.69.69-.69h6.79c3.69,0,6.65,2.97,6.65,6.65,0,2.33-1.38,4.45-3.43,5.56l4.98,6.33h0Zm-11.25-9.4h3.05c1.22,0,2.22-1.08,2.22-2.49s-1-2.49-2.22-2.49h-3.05v4.99Z"/><path class="cls-1" d="m63.09,20.01h-3.41c-.39,0-.67-.17-.78-.58l-.73-2.47h-6.8l-.73,2.47c-.11.42-.39.58-.78.58h-3.41c-.5,0-.75-.28-.58-.78L51.76,1.19c.11-.39.42-.58.8-.58h4.43c.39,0,.69.19.8.58l5.87,18.04c.17.5-.08.78-.58.78m-6.14-7.21l-2.17-7.34-2.17,7.34h4.34Z"/><path class="cls-1" d="m66.97,19.32v-2.02c0-.33.11-.61.36-.86l6.1-6.15c1.08-1.11,2.02-2.47,2.02-3.69,0-1.3-.67-2.05-1.91-2.05-1.16,0-1.86.47-2.08,1.5-.08.44-.3.66-.72.66h-3.08c-.44,0-.69-.25-.67-.72.33-4.02,3.35-5.76,6.43-5.76,3.24,0,6.46,1.94,6.46,6.38,0,2.13-1.3,4.35-2.88,5.9l-3.35,3.24h5.82c.44,0,.69.25.69.69v2.88c0,.44-.25.69-.69.69h-11.81c-.44,0-.69-.25-.69-.69"/><path class="cls-1" d="m82.94,10.31c0-5.99,2.88-10.09,7.9-10.09s7.9,4.1,7.9,10.09-2.88,10.09-7.9,10.09-7.9-4.1-7.9-10.09m11.36,0c0-3.74-1.14-5.76-3.46-5.76s-3.46,2.02-3.46,5.76,1.14,5.77,3.46,5.77,3.46-2.02,3.46-5.77"/><path class="cls-1" d="m100.95,19.32v-2.02c0-.33.11-.61.36-.86l6.1-6.15c1.08-1.11,2.02-2.47,2.02-3.69,0-1.3-.67-2.05-1.91-2.05-1.16,0-1.86.47-2.08,1.5-.08.44-.3.66-.72.66h-3.08c-.44,0-.69-.25-.67-.72.33-4.02,3.35-5.76,6.43-5.76,3.24,0,6.46,1.94,6.46,6.38,0,2.13-1.3,4.35-2.88,5.9l-3.35,3.24h5.82c.44,0,.69.25.69.69v2.88c0,.44-.25.69-.69.69h-11.81c-.44,0-.69-.25-.69-.69"/><path class="cls-1" d="m132.16,13.5v2.72c0,.44-.25.69-.69.69h-1.25v2.41c0,.44-.25.69-.69.69h-3.1c-.44,0-.69-.25-.69-.69v-2.41h-8.4c-.44,0-.69-.25-.69-.69v-2.97c0-.3.05-.55.19-.86l5.74-11.28c.17-.33.42-.5.8-.5h3.3c.53,0,.75.33.5.83l-5.77,11.36h4.32v-3.46c0-.44.25-.69.69-.69h3.1c.44,0,.69.25.69.69v3.46h1.25c.44,0,.69.25.69.69"/><path class="cls-1" d="m20.97,13.23c-.76.7-1.76,1.08-2.79,1.08s-2.09-.41-2.86-1.15c-.83-.79-1.29-1.86-1.29-3.01,0-1.08.41-2.09,1.16-2.87.79-.83,1.86-1.28,3-1.28s2.28.49,3.07,1.35l.62.68,4.26-4.17-.6-.63C23.6,1.18,20.99.05,18.17.05s-5.27,1.06-7.18,3c-1.88,1.9-2.92,4.43-2.92,7.1s1.07,5.29,3.02,7.2c1.9,1.87,4.42,2.9,7.08,2.9s5.03-.97,6.91-2.73l.66-.62-4.14-4.25-.63.58Zm-2.79,6.14c-2.52,0-4.8-1.01-6.46-2.65-1.7-1.67-2.75-4-2.75-6.57s1.02-4.82,2.67-6.48c1.67-1.69,3.99-2.74,6.55-2.74s5.03,1.12,6.71,2.9l-2.99,2.92c-.92-1.01-2.25-1.64-3.72-1.64s-2.72.6-3.64,1.55c-.87.9-1.4,2.13-1.4,3.49,0,1.43.6,2.73,1.56,3.65.9.86,2.13,1.39,3.48,1.39s2.49-.5,3.39-1.31l2.92,2.99c-1.65,1.55-3.86,2.49-6.3,2.49"/></g></svg>